<svg width="20" height="14" viewBox="0 0 20 14" fill="none" xmlns="http://www.w3.org/2000/svg">
<path d="M1.00001 12H19C19.2549 12.0003 19.5 12.0979 19.6854 12.2728C19.8707 12.4478 19.9822 12.687 19.9972 12.9414C20.0121 13.1958 19.9293 13.4464 19.7657 13.6418C19.6022 13.8373 19.3701 13.9629 19.117 13.993L19 14H1.00001C0.745126 13.9997 0.499974 13.9021 0.314638 13.7272C0.129302 13.5522 0.017771 13.313 0.00283393 13.0586C-0.0121032 12.8042 0.0706806 12.5536 0.234271 12.3582C0.397861 12.1627 0.62991 12.0371 0.883006 12.007L1.00001 12H19H1.00001ZM1.00001 6L19 5.998C19.2549 5.99828 19.5 6.09588 19.6854 6.27085C19.8707 6.44582 19.9822 6.68495 19.9972 6.93939C20.0121 7.19384 19.9293 7.44438 19.7657 7.63983C19.6022 7.83529 19.3701 7.9609 19.117 7.991L19 7.998L1.00001 8C0.745126 7.99972 0.499974 7.90212 0.314638 7.72715C0.129302 7.55218 0.017771 7.31305 0.00283393 7.05861C-0.0121032 6.80416 0.0706806 6.55362 0.234271 6.35817C0.397861 6.16271 0.62991 6.0371 0.883006 6.007L1.00001 6L19 5.998L1.00001 6ZM1.00001 0H19C19.2549 0.000282707 19.5 0.0978789 19.6854 0.272848C19.8707 0.447817 19.9822 0.686953 19.9972 0.941395C20.0121 1.19584 19.9293 1.44638 19.7657 1.64183C19.6022 1.83729 19.3701 1.9629 19.117 1.993L19 2H1.00001C0.745126 1.99972 0.499974 1.90212 0.314638 1.72715C0.129302 1.55218 0.017771 1.31305 0.00283393 1.05861C-0.0121032 0.804163 0.0706806 0.553621 0.234271 0.358168C0.397861 0.162715 0.62991 0.0371036 0.883006 0.00699997L1.00001 0H19H1.00001Z" fill="#707991"/>
</svg>
